<svg xmlns="http://www.w3.org/2000/svg" viewBox="0 0 128 128" role="img" aria-label="Purrfessor">
  <title>Purrfessor · 喵教授</title>
  <!-- magic scribble at the wand tip -->
  <g fill="none" stroke-linecap="round" stroke-linejoin="round" stroke-width="3.4">
    <path d="M86 44c-2-12 12-20 22-14 9 6 6 19-4 21-9 2-14-8-8-13 5-4 12-1 11 4" stroke="#e64980"/>
    <path d="M82 36c8-12 28-12 34 0" stroke="#12b886"/>
    <path d="M90 22c6-6 16-3 17 4" stroke="#fab005"/>
    <path d="M80 50c8 8 26 8 34-2" stroke="#7950f2"/>
    <path d="M100 58c6 1 10-2 12-6" stroke="#4dabf7"/>
  </g>
  <!-- wand -->
  <path d="M50 88 L88 50" stroke="#1d1d1f" stroke-width="7" stroke-linecap="round"/>
  <!-- cat face -->
  <path d="M12 76c0-17 13-28 30-28s30 11 30 28c0 16-13 26-30 26S12 92 12 76z" fill="#8f8b84"/>
  <g fill="#f4f1ea"><ellipse cx="37.5" cy="86.5" rx="6" ry="4.6"/><ellipse cx="46.5" cy="86.5" rx="6" ry="4.6"/></g>
  <g fill="#8f8b84"><path d="M16 62l-4-16 14 9z"/><path d="M68 62l4-16-14 9z"/></g>
  <g fill="#f2cf3c"><circle cx="31" cy="73" r="6.5"/><circle cx="53" cy="73" r="6.5"/></g>
  <g fill="#1d1d1f"><ellipse cx="32" cy="73.5" rx="2.4" ry="4.6"/><ellipse cx="52" cy="73.5" rx="2.4" ry="4.6"/></g>
  <path d="M39.2 81.6h5.6l-2.8 3.4z" fill="#e8849a"/>
  <!-- wizard hat -->
  <path d="M14 58L38 8c2-4 6-4 8 0l26 50z" fill="#2f6fd6"/>
  <path d="M8 58c0-4 16-7 34-7s34 3 34 7-16 6-34 6S8 62 8 58z" fill="#1f56b0"/>
  <circle cx="44" cy="34" r="7" fill="#fff"/>
  <path d="M44 28.5l1.8 3.7 4 .6-2.9 2.8.7 4-3.6-1.9-3.6 1.9.7-4-2.9-2.8 4-.6z" fill="#2f6fd6"/>
</svg>
