<svg xmlns="http://www.w3.org/2000/svg" viewBox="0 0 1280 360" width="1280" height="360" role="img" aria-label="Purrfessor · 喵教授: your Canvas day on one encrypted page">
  <title>Purrfessor · 喵教授</title>
  <defs>
    <linearGradient id="bg" x1="0" y1="0" x2="1" y2="1"><stop offset="0" stop-color="#0d1526"/><stop offset="1" stop-color="#1b1440"/></linearGradient>
    <radialGradient id="glow" cx="0.5" cy="0.5" r="0.5"><stop offset="0" stop-color="#7aa7ff" stop-opacity="0.35"/><stop offset="1" stop-color="#7aa7ff" stop-opacity="0"/></radialGradient>
  </defs>
  <rect width="1280" height="360" rx="28" fill="url(#bg)"/>
  <circle cx="200" cy="185" r="175" fill="url(#glow)"/>
  <path d="M0-10L2.4-2.4 10 0 2.4 2.4 0 10-2.4 2.4-10 0-2.4-2.4z" fill="#ffd43b" transform="translate(330 62) scale(1.1)" opacity="0.2"><animate attributeName="opacity" values="0.15;1;0.15" dur="2.6s" begin="0.0s" repeatCount="indefinite"/></path><path d="M0-10L2.4-2.4 10 0 2.4 2.4 0 10-2.4 2.4-10 0-2.4-2.4z" fill="#ffd43b" transform="translate(1180 70) scale(0.9)" opacity="0.2"><animate attributeName="opacity" values="0.15;1;0.15" dur="3.1s" begin="0.6s" repeatCount="indefinite"/></path><path d="M0-10L2.4-2.4 10 0 2.4 2.4 0 10-2.4 2.4-10 0-2.4-2.4z" fill="#ffd43b" transform="translate(1225 250) scale(0.7)" opacity="0.2"><animate attributeName="opacity" values="0.15;1;0.15" dur="2.2s" begin="1.2s" repeatCount="indefinite"/></path><path d="M0-10L2.4-2.4 10 0 2.4 2.4 0 10-2.4 2.4-10 0-2.4-2.4z" fill="#ffd43b" transform="translate(56 280) scale(0.8)" opacity="0.2"><animate attributeName="opacity" values="0.15;1;0.15" dur="2.9s" begin="0.3s" repeatCount="indefinite"/></path><path d="M0-10L2.4-2.4 10 0 2.4 2.4 0 10-2.4 2.4-10 0-2.4-2.4z" fill="#ffd43b" transform="translate(300 300) scale(0.6)" opacity="0.2"><animate attributeName="opacity" values="0.15;1;0.15" dur="2.4s" begin="1.6s" repeatCount="indefinite"/></path><path d="M0-10L2.4-2.4 10 0 2.4 2.4 0 10-2.4 2.4-10 0-2.4-2.4z" fill="#ffd43b" transform="translate(720 40) scale(0.55)" opacity="0.2"><animate attributeName="opacity" values="0.15;1;0.15" dur="3.4s" begin="0.9s" repeatCount="indefinite"/></path><path d="M0-10L2.4-2.4 10 0 2.4 2.4 0 10-2.4 2.4-10 0-2.4-2.4z" fill="#ffd43b" transform="translate(1010 312) scale(0.75)" opacity="0.2"><animate attributeName="opacity" values="0.15;1;0.15" dur="2.7s" begin="0.2s" repeatCount="indefinite"/></path><path d="M0-10L2.4-2.4 10 0 2.4 2.4 0 10-2.4 2.4-10 0-2.4-2.4z" fill="#ffd43b" transform="translate(268 170) scale(0.5)" opacity="0.2"><animate attributeName="opacity" values="0.15;1;0.15" dur="2.0s" begin="1.1s" repeatCount="indefinite"/></path>
  <g transform="translate(58 44) scale(2.2)">
    <g>
      <animateTransform attributeName="transform" type="translate" values="0 0;0 -3.5;0 0" dur="4s" repeatCount="indefinite"/>
      
  <g fill="none" stroke-linecap="round" stroke-linejoin="round" stroke-width="3.4"><path d="M86 44c-2-12 12-20 22-14 9 6 6 19-4 21-9 2-14-8-8-13 5-4 12-1 11 4" stroke="#e64980" stroke-dasharray="130" stroke-dashoffset="130"><animate attributeName="stroke-dashoffset" values="130;0;0;130" keyTimes="0;0.3;0.85;1" dur="5s" begin="0.0s" repeatCount="indefinite"/></path><path d="M82 36c8-12 28-12 34 0" stroke="#12b886" stroke-dasharray="130" stroke-dashoffset="130"><animate attributeName="stroke-dashoffset" values="130;0;0;130" keyTimes="0;0.3;0.85;1" dur="5s" begin="0.25s" repeatCount="indefinite"/></path><path d="M90 22c6-6 16-3 17 4" stroke="#fab005" stroke-dasharray="130" stroke-dashoffset="130"><animate attributeName="stroke-dashoffset" values="130;0;0;130" keyTimes="0;0.3;0.85;1" dur="5s" begin="0.5s" repeatCount="indefinite"/></path><path d="M80 50c8 8 26 8 34-2" stroke="#7950f2" stroke-dasharray="130" stroke-dashoffset="130"><animate attributeName="stroke-dashoffset" values="130;0;0;130" keyTimes="0;0.3;0.85;1" dur="5s" begin="0.75s" repeatCount="indefinite"/></path><path d="M100 58c6 1 10-2 12-6" stroke="#4dabf7" stroke-dasharray="130" stroke-dashoffset="130"><animate attributeName="stroke-dashoffset" values="130;0;0;130" keyTimes="0;0.3;0.85;1" dur="5s" begin="1.0s" repeatCount="indefinite"/></path></g>
  <path d="M50 88 L88 50" stroke="#f5f7fb" stroke-width="7" stroke-linecap="round"/>
  <path d="M12 76c0-17 13-28 30-28s30 11 30 28c0 16-13 26-30 26S12 92 12 76z" fill="#8f8b84"/>
  <g fill="#f4f1ea"><ellipse cx="37.5" cy="86.5" rx="6" ry="4.6"/><ellipse cx="46.5" cy="86.5" rx="6" ry="4.6"/></g>
  <g fill="#8f8b84"><path d="M16 62l-4-16 14 9z"/><path d="M68 62l4-16-14 9z"/></g>
  <g fill="#f2cf3c"><circle cx="31" cy="73" r="6.5"/><circle cx="53" cy="73" r="6.5"/></g>
  <g fill="#1d1d1f"><ellipse cx="32" cy="73.5" rx="2.4" ry="4.6">
      <animate attributeName="ry" values="4.6;4.6;0.4;4.6;4.6" keyTimes="0;0.9;0.93;0.96;1" dur="6s" repeatCount="indefinite"/></ellipse>
    <ellipse cx="52" cy="73.5" rx="2.4" ry="4.6">
      <animate attributeName="ry" values="4.6;4.6;0.4;4.6;4.6" keyTimes="0;0.9;0.93;0.96;1" dur="6s" repeatCount="indefinite"/></ellipse></g>
  <path d="M39.2 81.6h5.6l-2.8 3.4z" fill="#e8849a"/>
  <path d="M14 58L38 8c2-4 6-4 8 0l26 50z" fill="#2f6fd6"/>
  <path d="M8 58c0-4 16-7 34-7s34 3 34 7-16 6-34 6S8 62 8 58z" fill="#1f56b0"/>
  <circle cx="44" cy="34" r="7" fill="#fff"/>
  <path d="M44 28.5l1.8 3.7 4 .6-2.9 2.8.7 4-3.6-1.9-3.6 1.9.7-4-2.9-2.8 4-.6z" fill="#2f6fd6">
    <animate attributeName="opacity" values="1;0.35;1" dur="2.4s" repeatCount="indefinite"/></path>
    </g>
  </g>
  <g font-family="-apple-system, BlinkMacSystemFont, 'Segoe UI', 'PingFang SC', 'Hiragino Sans GB', 'Noto Sans CJK SC', 'Microsoft YaHei', Helvetica, Arial, sans-serif">
    <text x="400" y="138" font-size="84" font-weight="800" fill="#f5f7fb" letter-spacing="-1.5">Purrfessor</text>
    <text x="870" y="138" font-size="60" font-weight="700" fill="#7aa7ff">喵教授</text>
    <text x="402" y="190" font-size="27" fill="#f5f7fb">Your Canvas day, on one encrypted page.</text>
    <text x="402" y="230" font-size="23" fill="#b8c2d6">每天一页：Canvas 上要做的事一目了然，AI 帮你排好先后。</text>
    <rect x="400" y="262" width="159" height="34" rx="17" fill="#ffffff14" stroke="#7aa7ff" stroke-opacity="0.35"/><text x="480" y="284" text-anchor="middle" font-size="15" fill="#dfe6f3">Canvas → 1 page</text><rect x="569.0" y="262" width="99" height="34" rx="17" fill="#ffffff14" stroke="#7aa7ff" stroke-opacity="0.35"/><text x="618" y="284" text-anchor="middle" font-size="15" fill="#dfe6f3">4× a day</text><rect x="677.8" y="262" width="90" height="34" rx="17" fill="#ffffff14" stroke="#7aa7ff" stroke-opacity="0.35"/><text x="723" y="284" text-anchor="middle" font-size="15" fill="#dfe6f3">AES-256</text><rect x="778.0" y="262" width="99" height="34" rx="17" fill="#ffffff14" stroke="#7aa7ff" stroke-opacity="0.35"/><text x="827" y="284" text-anchor="middle" font-size="15" fill="#dfe6f3">AI agent</text><rect x="886.8" y="262" width="193" height="34" rx="17" fill="#ffffff14" stroke="#7aa7ff" stroke-opacity="0.35"/><text x="984" y="284" text-anchor="middle" font-size="15" fill="#dfe6f3">$0 · GitHub Actions</text><rect x="1090.2" y="262" width="146" height="34" rx="17" fill="#ffffff14" stroke="#7aa7ff" stroke-opacity="0.35"/><text x="1163" y="284" text-anchor="middle" font-size="15" fill="#dfe6f3">English · 中文</text>
  </g>
</svg>
